<?xml version="1.0" standalone="no"?>
<!DOCTYPE svg PUBLIC "-//W3C//DTD SVG 20010904//EN"
        "http://www.w3.org/TR/2001/REC-SVG-20010904/DTD/svg10.dtd">
<svg version="1.0" xmlns="http://www.w3.org/2000/svg"
     width="300.000000pt" height="78.000000pt" viewBox="0 0 300.000000 78.000000"
     preserveAspectRatio="xMidYMid meet">

    <g transform="translate(0.000000,78.000000) scale(0.100000,-0.100000)"
       fill="#000000" stroke="none">
        <path d="M2510 390 l0 -250 35 0 35 0 0 120 0 120 33 20 c45 28 92 26 122 -5
24 -23 25 -30 25 -140 l0 -115 35 0 35 0 0 93 c-1 127 -12 173 -48 210 -38 38
-120 49 -170 23 l-32 -17 0 96 0 95 -35 0 -35 0 0 -250z"/>
        <path d="M315 596 c-88 -41 -137 -118 -137 -217 0 -72 27 -133 79 -180 53 -48
99 -62 183 -57 57 3 77 9 112 34 51 36 95 104 104 162 l7 42 -35 0 c-33 0 -36
-2 -42 -40 -8 -54 -67 -114 -125 -130 -126 -34 -245 85 -211 211 15 55 75 115
125 125 32 6 35 9 35 40 0 29 -4 34 -22 34 -13 0 -46 -11 -73 -24z"/>
        <path d="M1400 380 l0 -240 30 0 30 0 0 105 0 105 130 0 130 0 0 -105 0 -105
35 0 35 0 0 240 0 240 -35 0 -35 0 0 -105 0 -105 -130 0 -130 0 0 105 0 105
-30 0 -30 0 0 -240z"/>
        <path d="M803 465 c-18 -8 -33 -10 -33 -5 0 6 -13 10 -30 10 l-30 0 0 -165 0
-165 30 0 30 0 0 120 0 120 33 20 c46 29 98 26 128 -6 22 -23 24 -35 27 -140
l4 -114 29 0 29 0 0 113 c0 130 -18 185 -69 211 -37 20 -105 20 -148 1z"/>
        <path d="M1140 469 c-75 -30 -122 -126 -101 -206 22 -82 81 -126 167 -126 62
0 110 25 137 71 l19 32 -32 0 c-20 0 -44 -10 -62 -25 -44 -37 -91 -34 -134 9
-19 19 -34 39 -34 45 0 7 42 11 131 11 l131 0 -4 53 c-5 64 -33 108 -82 131
-38 18 -98 20 -136 5z m124 -71 c14 -13 26 -32 28 -43 3 -19 -3 -20 -94 -23
-54 -1 -98 0 -98 3 0 15 32 65 47 74 32 19 90 13 117 -11z"/>
        <path d="M1930 469 c-63 -25 -100 -85 -100 -159 0 -105 64 -173 163 -173 29 0
64 6 77 13 18 9 25 10 28 1 2 -6 17 -11 33 -11 l29 0 0 165 0 165 -30 0 c-16
0 -30 -4 -30 -9 0 -6 -16 -3 -35 5 -39 16 -98 17 -135 3z m138 -69 c33 -20 33
-20 30 -92 -3 -70 -4 -73 -37 -95 -40 -27 -71 -29 -111 -8 -37 19 -60 62 -60
111 0 28 8 44 34 70 41 41 92 46 144 14z"/>
        <path d="M2264 470 c-30 -12 -64 -58 -64 -87 0 -55 39 -86 125 -98 87 -12 119
-47 73 -79 -46 -33 -148 -5 -148 40 0 9 -11 14 -30 14 -25 0 -30 -4 -30 -23 0
-70 107 -122 200 -97 57 15 90 50 90 94 0 57 -32 84 -120 102 -80 16 -106 34
-89 65 21 39 114 32 141 -11 13 -21 68 -29 68 -10 0 27 -32 69 -64 84 -36 17
-117 20 -152 6z"/>
    </g>
</svg>
